<?xml version="1.0" encoding="utf-8"?>
<!-- Generator: Adobe Illustrator 21.0.2, SVG Export Plug-In . SVG Version: 6.00 Build 0)  -->
<svg version="1.1" id="Layer_1" xmlns="http://www.w3.org/2000/svg" xmlns:xlink="http://www.w3.org/1999/xlink" x="0px" y="0px"
	 viewBox="0 0 185 51.1" style="enable-background:new 0 0 185 51.1;" xml:space="preserve">
<style type="text/css">
	.st0{fill:#353530;}
	.st1{fill:#FFC700;}
	.st2{fill:#45453F;}
</style>
<g>
	<path class="st0" d="M48.5,0l-5.6,5.6v13.7h-6.4V0H13.7v19.3H4.5v19.3H0v3.7h10.8c-0.2,0.6-0.3,1.2-0.3,1.8c0,1.4,0.6,2.8,1.5,3.8
		c-4.6,0.3-7.4,0.9-7.4,1.5c-0.1,1,9.3,1.8,21,1.8c11.6,0,21-0.9,21-1.9c0-0.6-2.9-1.1-7.4-1.5c1-1,1.5-2.3,1.5-3.8
		c0-0.6-0.1-1.3-0.3-1.8h6.2v-35L51,2.6L48.5,0z M25.6,47.2c-1.8,0-3.6,0-5.3,0.1c0.7-1,1.2-2.1,1.2-3.4c0-0.6-0.1-1.3-0.3-1.8H30
		c-0.2,0.6-0.3,1.2-0.3,1.8c0,1.3,0.4,2.5,1.2,3.4C29.2,47.3,27.3,47.2,25.6,47.2z"/>
	<g>
		<path class="st0" d="M62.4,10h-4.2V7.1h11.4V10h-4.2v12.9h-3L62.4,10L62.4,10z"/>
		<path class="st0" d="M67.5,17.5c0-3.8,2.8-5.7,5.3-5.7c1.4,0,2.5,0.6,3.2,1.3v-1h3v10.9h-3v-1.2c-0.7,0.9-1.8,1.4-3.3,1.4
			C70.5,23.1,67.5,21.3,67.5,17.5z M76.1,17.5c0-1.6-1.2-2.9-2.8-2.9c-1.7,0-2.9,1.2-2.9,2.9s1.3,3,2.9,3
			C74.9,20.4,76.1,19.1,76.1,17.5z"/>
		<path class="st0" d="M80,8.7l3-1.6v6.2c0.7-0.9,1.8-1.4,3-1.4c2.6,0,4.1,1.7,4.1,4.5v6.6h-3v-6.2c0-1.4-0.6-2.3-2-2.3
			C84,14.4,83,15.2,83,17v5.9h-3C80,22.9,80,8.7,80,8.7z"/>
		<path class="st0" d="M90.4,12.1h1.8V9.5l3-1.6v4.2h2.1v2.6h-2.1v3.4c0,1.7,0.2,1.9,2.1,1.9v2.8h-0.4c-3.4,0-4.6-1.2-4.6-4.7v-3.4
			h-1.8L90.4,12.1L90.4,12.1z"/>
		<path class="st0" d="M97.5,17.5c0-3.8,2.8-5.7,5.3-5.7c1.4,0,2.5,0.6,3.2,1.3v-1h3v10.9h-3v-1.2c-0.7,0.9-1.8,1.4-3.3,1.4
			C100.4,23.1,97.5,21.3,97.5,17.5z M106.1,17.5c0-1.6-1.2-2.9-2.8-2.9c-1.7,0-2.9,1.2-2.9,2.9s1.3,3,2.9,3
			C104.9,20.4,106.1,19.1,106.1,17.5z"/>
		<path class="st0" d="M114.5,18.5l-1.4,1.7v2.6h-3V8.7l3-1.6v9.7l4-4.8h3.4l-3.9,4.7l4.2,6.2h-3.3L114.5,18.5z"/>
		<path class="st0" d="M119.7,17.5c0-3.8,2.8-5.7,5.3-5.7c1.4,0,2.5,0.6,3.2,1.3v-1h3v10.9h-3v-1.2c-0.7,0.9-1.8,1.4-3.3,1.4
			C122.5,23.1,119.7,21.3,119.7,17.5z M128.2,17.5c0-1.6-1.2-2.9-2.8-2.9c-1.7,0-2.9,1.2-2.9,2.9s1.3,3,2.9,3
			C127,20.4,128.2,19.1,128.2,17.5z"/>
		<path class="st0" d="M132.2,8.7l3-1.6v15.8h-3V8.7z"/>
		<path class="st0" d="M135.9,17.5c0-3.1,2.5-5.7,5.7-5.7c3.4,0,5.6,2.5,5.6,5.6v1.1h-8.4c0.3,1.2,1.4,2,2.9,2
			c1.2,0,2.2-0.6,2.6-1.7l2.4,1.4c-1,1.7-2.6,2.9-5,2.9C138.3,23.1,135.9,20.6,135.9,17.5z M138.9,16.1h5.3
			c-0.4-1.1-1.4-1.7-2.6-1.7C140.3,14.5,139.3,15.2,138.9,16.1z"/>
		<path class="st0" d="M62.4,29.2h-4.2v-2.9h11.4v2.9h-4.2v12.9h-3L62.4,29.2L62.4,29.2z"/>
		<path class="st0" d="M67.5,36.7c0-3.1,2.5-5.7,5.6-5.7s5.6,2.5,5.6,5.7s-2.5,5.7-5.6,5.7S67.5,39.8,67.5,36.7z M75.9,36.7
			c0-1.5-1.2-2.8-2.7-2.8c-1.5,0-2.7,1.3-2.7,2.8s1.2,2.8,2.7,2.8C74.7,39.5,75.9,38.2,75.9,36.7z"/>
		<path class="st0" d="M82.4,41.1v4.4l-3,1.6V31.2h3v1.2c0.7-0.9,1.8-1.4,3.3-1.4c2.5,0,5.3,1.8,5.3,5.7s-2.9,5.7-5.2,5.7
			C84.4,42.3,83.2,41.9,82.4,41.1z M88,36.7c0-1.7-1.3-2.9-2.9-2.9c-1.6,0-2.8,1.3-2.8,2.9c0,1.6,1.2,3,2.8,3
			C86.8,39.5,88,38.3,88,36.7z"/>
		<path class="st0" d="M90.7,31.2h1.8v-2.6l3-1.6v4.2h2.1v2.6h-2.1v3.4c0,1.7,0.2,1.9,2.1,1.9V42h-0.4c-3.4,0-4.6-1.2-4.6-4.7v-3.4
			h-1.8L90.7,31.2L90.7,31.2z"/>
		<path class="st0" d="M97.9,36.7c0-3.8,2.8-5.7,5.3-5.7c1.4,0,2.5,0.6,3.2,1.3v-1h3v10.9h-3v-1.2c-0.7,0.9-1.8,1.4-3.3,1.4
			C100.7,42.3,97.9,40.5,97.9,36.7z M106.4,36.7c0-1.6-1.2-2.9-2.8-2.9c-1.7,0-2.9,1.2-2.9,2.9s1.3,3,2.9,3
			C105.3,39.5,106.4,38.3,106.4,36.7z"/>
		<path class="st0" d="M110.5,31.2h3v1.2c0.7-0.9,1.8-1.4,3-1.4c2.6,0,4.1,1.7,4.1,4.5v6.6h-3v-6.2c0-1.4-0.6-2.3-2-2.3
			c-1.1,0-2.1,0.8-2.1,2.6v5.9h-3L110.5,31.2L110.5,31.2z"/>
		<path class="st0" d="M124.1,29.2h-4.2v-2.9h11.4v2.9H127v12.9h-3L124.1,29.2L124.1,29.2z"/>
		<path class="st0" d="M132.2,26.3h3v3h-3V26.3z M132.2,30.4h3v11.7h-3V30.4z"/>
		<path class="st0" d="M135.9,36.7c0-3.1,2.5-5.7,5.6-5.7c2.5,0,4.4,1.4,5.2,3.4l-2.6,1.1c-0.4-1-1.4-1.8-2.6-1.8
			c-1.6,0-2.8,1.3-2.8,2.8c0,1.6,1.2,2.8,2.8,2.8c1.1,0,2.2-0.7,2.6-1.8l2.6,1.1c-0.9,2-2.7,3.4-5.2,3.4
			C138.4,42.3,135.9,39.8,135.9,36.7z"/>
		<path class="st0" d="M147,36.7c0-3.8,2.8-5.7,5.3-5.7c1.4,0,2.5,0.6,3.2,1.3v-1h3v10.9h-3v-1.2c-0.7,0.9-1.8,1.4-3.3,1.4
			C149.9,42.3,147,40.5,147,36.7z M155.5,36.7c0-1.6-1.2-2.9-2.8-2.9c-1.7,0-2.9,1.2-2.9,2.9s1.3,3,2.9,3
			C154.4,39.5,155.5,38.3,155.5,36.7z"/>
		<path class="st0" d="M159.6,31.2h3V33c0.6-1.1,1.5-1.8,3-1.8h1.2v2.9h-1.9c-1.6,0-2.2,0.8-2.2,2.9v5.1h-3V31.2z"/>
		<path class="st0" d="M166.9,36.7c0-3.1,2.5-5.7,5.7-5.7c3.4,0,5.6,2.5,5.6,5.6v1.1h-8.4c0.3,1.2,1.4,2,2.9,2
			c1.2,0,2.2-0.6,2.6-1.7l2.4,1.4c-1,1.7-2.6,2.9-5,2.9C169.3,42.3,166.9,39.8,166.9,36.7z M169.9,35.4h5.3
			c-0.4-1.1-1.4-1.7-2.6-1.7C171.3,33.6,170.3,34.3,169.9,35.4z"/>
		<path class="st0" d="M178.1,31.2h1.8v-2.6l3-1.6v4.2h2.1v2.6h-2.1v3.4c0,1.7,0.2,1.9,2.1,1.9V42h-0.5c-3.4,0-4.6-1.2-4.6-4.7v-3.4
			h-1.8V31.2z"/>
	</g>
	<path class="st1" d="M17.3,3.7h15.6v15.6H17.3V3.7z M8.1,38.4V22.8h15.6v15.6H8.1z M17.7,43.9c0,1-0.8,1.8-1.8,1.8
		s-1.8-0.8-1.8-1.8c0-1,0.8-1.8,1.8-1.8S17.7,42.9,17.7,43.9z M37,43.9c0,1-0.8,1.8-1.8,1.8c-1,0-1.8-0.8-1.8-1.8
		c0-1,0.8-1.8,1.8-1.8C36.2,42.1,37,42.9,37,43.9z M42.9,38.4H27.4V22.8H43L42.9,38.4L42.9,38.4z"/>
	<g id="XMLID_18_">
		<path id="XMLID_30_" class="st1" d="M161.7,48c0-1.8,1.4-3.1,3.1-3.1c1.3,0,2.4,0.7,2.8,1.8l-1.1,0.5c-0.3-0.7-0.9-1.1-1.7-1.1
			c-1,0-1.8,0.9-1.8,1.9c0,1,0.8,1.9,1.8,1.9c0.8,0,1.4-0.5,1.7-1.2l1.1,0.5c-0.5,1.1-1.4,1.8-2.9,1.8C163,51.1,161.7,49.8,161.7,48
			z"/>
		<path id="XMLID_27_" class="st1" d="M168.3,48c0-1.8,1.4-3.1,3-3.1s3.1,1.4,3.1,3.1c0,1.8-1.4,3.1-3.1,3.1
			C169.7,51.1,168.3,49.8,168.3,48z M173.3,48c0-1-0.8-1.9-1.8-1.9c-1,0-1.8,0.9-1.8,1.9c0,1,0.8,1.9,1.8,1.9
			C172.5,49.9,173.3,49,173.3,48z"/>
		<path id="XMLID_20_" class="st1" d="M175.6,45.1h1.3v0.7c0.4-0.6,1-0.8,1.8-0.8c1,0,1.6,0.4,1.9,1c0.4-0.6,1.1-1,2-1
			c1.6,0,2.5,1,2.5,2.5V51h-1.3v-3.4c0-0.9-0.5-1.4-1.4-1.4c-0.8,0-1.4,0.6-1.4,1.6v3.4h-1.3v-3.5c0-0.9-0.5-1.4-1.4-1.4
			c-0.8,0-1.4,0.6-1.4,1.7v3.3h-1.3L175.6,45.1L175.6,45.1z"/>
		<rect id="XMLID_19_" x="159.5" y="45.1" class="st1" width="1.6" height="1.6"/>
	</g>
	<path id="XMLID_9_" class="st2" d="M40.2,28.4h-3.7v7.3h-2.7v-7.3h-3.7v-2.7h10.1C40.2,25.6,40.2,28.4,40.2,28.4z M20.9,25.6H10.9
		v2.7h3.7v7.3h2.7v-7.3h3.7V25.6z M30.1,6.4H20v2.7h3.7v7.3h2.7V9.1h3.7V6.4z"/>
</g>
</svg>
